<?xml version="1.0" encoding="UTF-8" standalone="no"?>
<svg
   width="487.979"
   height="162.74699"
   viewBox="0 0 487.979 162.74699"
   version="1.1"
   xml:space="preserve"
   style="clip-rule:evenodd;fill-rule:evenodd;stroke-linejoin:round;stroke-miterlimit:2"
   id="svg51"
   sodipodi:docname="logo.svg"
   inkscape:export-batch-path="/home/frank/dev/tum-dev/tum-dev.github.io/public"
   inkscape:export-batch-name="logo-light"
   xmlns:inkscape="http://www.inkscape.org/namespaces/inkscape"
   xmlns:sodipodi="http://sodipodi.sourceforge.net/DTD/sodipodi-0.dtd"
   xmlns="http://www.w3.org/2000/svg"
   xmlns:svg="http://www.w3.org/2000/svg"
   xmlns:serif="http://www.serif.com/"><defs
   id="defs51" /><sodipodi:namedview
   id="namedview51"
   pagecolor="#505050"
   bordercolor="#ffffff"
   borderopacity="1"
   inkscape:showpageshadow="0"
   inkscape:pageopacity="0"
   inkscape:pagecheckerboard="1"
   inkscape:deskcolor="#d1d1d1" />
    
    
    
    <g
   id="logo1"
   serif:id="logo"
   inkscape:export-filename="logo-light.svg"
   inkscape:export-xdpi="96"
   inkscape:export-ydpi="96"
   transform="translate(-916.621,-270.6)">
        <g
   id="g51">
            <g
   id="g31">
                <path
   d="m 1302.45,305.11 c 0,7.853 -3.44,14.855 -8.82,19.382 -3.98,3.372 -9.04,5.392 -14.53,5.392 -5.5,0 -10.55,-2.02 -14.53,-5.392 -5.39,-4.527 -8.82,-11.529 -8.82,-19.382 0,-13.685 10.45,-24.774 23.35,-24.774 12.9,0 23.35,11.089 23.35,24.774"
   style="fill:#3070b3;fill-rule:nonzero"
   id="path26" />
                <path
   d="m 1186.48,305.11 c 0,7.853 -3.44,14.855 -8.82,19.382 -3.98,3.372 -9.03,5.392 -14.53,5.392 -5.5,0 -10.55,-2.02 -14.53,-5.392 -5.39,-4.527 -8.82,-11.529 -8.82,-19.382 0,-13.685 10.45,-24.774 23.35,-24.774 12.9,0 23.35,11.089 23.35,24.774"
   style="fill:#3070b3;fill-rule:nonzero"
   id="path27" />
                <path
   d="m 1070.51,305.11 c 0,7.853 -3.43,14.855 -8.82,19.382 -3.98,3.372 -9.03,5.392 -14.53,5.392 -5.5,0 -10.55,-2.02 -14.53,-5.392 -5.38,-4.527 -8.82,-11.529 -8.82,-19.382 0,-13.685 10.45,-24.774 23.35,-24.774 12.9,0 23.35,11.089 23.35,24.774"
   style="fill:#3070b3;fill-rule:nonzero"
   id="path28" />
                <path
   d="m 1135.46,339.321 -34.81,-30.747 c -2.99,-2.747 -3.31,-7.543 -0.72,-10.713 1.41,-1.735 3.41,-2.624 5.41,-2.624 1.66,0 3.33,0.611 4.68,1.855 0,0 32.51,29.942 33.55,30.833 0.02,0.021 12.07,9.066 19.56,9.066 7.52,0 18.09,-7.687 19.66,-9.114 l 33.65,-31.062 c 1.32,-1.124 2.9,-1.668 4.47,-1.668 2.1,0 4.18,0.974 5.59,2.848 2.47,3.273 1.97,8.053 -1.11,10.674 l -34.36,31.162 c 0.21,0.481 3.71,11.951 3.71,17.796 v 17.341 h -63.22 v -17.341 c 0,-5.845 1.11,-11.381 3.09,-16.317 0.27,-0.675 0.55,-1.338 0.85,-1.989 z"
   style="fill:#3070b3"
   id="path29" />
                <path
   d="m 1019.5,339.321 -34.818,-30.747 c -2.986,-2.747 -3.311,-7.543 -0.723,-10.713 1.416,-1.735 3.409,-2.624 5.414,-2.624 1.66,0 3.33,0.611 4.684,1.855 0,0 32.503,29.942 33.553,30.833 0.01,0.021 12.06,9.066 19.55,9.066 7.52,0 18.09,-7.687 19.66,-9.114 l 33.65,-31.062 c 1.32,-1.124 2.9,-1.668 4.47,-1.668 2.1,0 4.18,0.974 5.59,2.848 2.48,3.273 1.98,8.053 -1.11,10.674 l -34.36,31.162 c 0.22,0.481 3.71,11.951 3.71,17.796 v 17.341 h -63.22 v -17.341 c 0,-5.845 1.12,-11.381 3.09,-16.317 0.27,-0.675 0.56,-1.338 0.86,-1.989 z"
   style="fill:#3070b3"
   id="path30" />
                <path
   d="m 1251.43,339.321 -34.81,-30.747 c -2.99,-2.747 -3.31,-7.543 -0.73,-10.713 1.42,-1.735 3.41,-2.624 5.42,-2.624 1.66,0 3.33,0.611 4.68,1.855 0,0 32.5,29.942 33.55,30.833 0.02,0.021 12.07,9.066 19.56,9.066 7.51,0 17.76,-7.412 19.33,-8.839 l 8.57,11.679 c 0.21,0.481 3.71,11.951 3.71,17.796 v 17.341 h -63.22 v -17.341 c 0,-5.845 1.11,-11.381 3.09,-16.317 0.27,-0.675 0.55,-1.338 0.85,-1.989 z"
   style="fill:#3070b3"
   id="path31" />
            </g>
            <g
   id="g50">
                <path
   d="m 1390.72,367.537 v 39.913 c 0,8.443 -2.2,14.837 -6.6,19.174 -4.39,4.341 -10.93,6.723 -19.61,6.723 h -7.63 v -13.924 h 4.34 c 4.28,0 7.49,-1.157 9.63,-3.47 2.14,-2.316 3.21,-5.667 3.21,-10.065 v -38.004 c 0,-4.049 0.52,-7.203 1.56,-9.459 1.04,-2.255 2.57,-3.961 4.6,-5.118 0.99,-0.564 2.13,-1.043 3.4,-1.442 -0.19,-0.065 -3.12,-1.266 -3.4,-1.422 -2.03,-1.098 -3.56,-2.777 -4.6,-5.032 -1.04,-2.256 -1.56,-5.407 -1.56,-9.458 v -38.005 c 0,-4.393 -1.07,-7.749 -3.21,-10.065 -2.14,-2.311 -5.35,-3.47 -9.63,-3.47 h -4.34 V 270.6 h 7.63 c 8.68,0 15.22,2.246 19.61,6.524 4.4,4.282 6.6,10.703 6.6,19.262 V 336.3 c 0,3.009 0.69,5.207 2.08,6.594 1.39,1.388 3.3,2.083 5.73,2.083 h 6.07 v 13.882 h -6.07 c -2.43,0 -4.34,0.695 -5.73,2.084 -1.39,1.388 -2.08,3.587 -2.08,6.594"
   style="fill:#072140;fill-rule:nonzero"
   id="path32" />
                <path
   d="m 930.504,367.537 v 39.913 c 0,8.443 2.197,14.837 6.594,19.174 4.397,4.341 10.933,6.723 19.611,6.723 h 7.636 v -13.924 h -4.341 c -4.281,0 -7.491,-1.157 -9.629,-3.47 -2.143,-2.316 -3.212,-5.667 -3.212,-10.065 v -38.004 c 0,-4.049 -0.52,-7.203 -1.562,-9.459 -1.04,-2.255 -2.574,-3.961 -4.597,-5.118 -0.989,-0.564 -2.127,-1.043 -3.405,-1.442 0.187,-0.065 3.12,-1.266 3.405,-1.422 2.023,-1.098 3.557,-2.777 4.597,-5.032 1.042,-2.256 1.562,-5.407 1.562,-9.458 v -38.005 c 0,-4.393 1.069,-7.749 3.212,-10.065 2.138,-2.311 5.348,-3.47 9.629,-3.47 h 4.341 V 270.6 h -7.636 c -8.678,0 -15.214,2.246 -19.611,6.524 -4.397,4.282 -6.594,10.703 -6.594,19.262 V 336.3 c 0,3.009 -0.695,5.207 -2.082,6.594 -1.389,1.388 -3.297,2.083 -5.727,2.083 h -6.074 v 13.882 h 6.074 c 2.43,0 4.338,0.695 5.727,2.084 1.387,1.388 2.082,3.587 2.082,6.594"
   style="fill:#072140;fill-rule:nonzero"
   id="path33" />
                <path
   d="m 1331.16,370.885 c 4.3,0 7.72,2.827 7.72,7.541 v 35.453 c 0,4.714 -3.49,6.776 -7.8,6.776 H 992.14 c -4.306,0 -7.795,-2.062 -7.795,-6.776 v -35.453 c 0,-4.714 3.563,-7.541 7.869,-7.541 z"
   style="fill:#072140"
   id="path34" />
                <g
   id="g49">
                    <g
   id="g48">
                        <path
   d="m 1004.71,400.17 c 0.74,1.315 2.12,1.972 4.15,1.972 2.03,0 3.41,-0.657 4.15,-1.972 0.74,-1.315 1.11,-3.519 1.11,-6.611 0,-3.093 -0.38,-5.341 -1.13,-6.743 -0.75,-1.403 -2.13,-2.104 -4.13,-2.104 -2,0 -3.38,0.701 -4.13,2.104 -0.75,1.402 -1.13,3.65 -1.13,6.743 0,3.092 0.37,5.296 1.11,6.611 z m 12.36,3.306 c -1.59,2.116 -4.33,3.174 -8.21,3.174 -3.88,0 -6.62,-1.058 -8.21,-3.174 -1.587,-2.116 -2.382,-5.428 -2.382,-9.936 0,-4.508 0.795,-7.857 2.382,-10.049 1.59,-2.191 4.33,-3.287 8.21,-3.287 3.88,0 6.62,1.096 8.21,3.287 1.59,2.192 2.38,5.541 2.38,10.049 0,4.508 -0.79,7.82 -2.38,9.936 z"
   style="fill:#ffffff;fill-rule:nonzero"
   id="path35" />
                        <path
   d="m 1023.44,414.088 v -26.671 h 4.99 v 1.014 c 1.63,-0.977 3.06,-1.465 4.28,-1.465 2.53,0 4.4,0.758 5.6,2.273 1.2,1.515 1.81,4.088 1.81,7.719 0,3.631 -0.67,6.155 -2,7.57 -1.32,1.414 -3.5,2.122 -6.53,2.122 -0.83,0 -1.72,-0.075 -2.67,-0.225 l -0.45,-0.076 v 7.739 z m 8.3,-22.614 c -0.93,0 -1.87,0.188 -2.82,0.563 l -0.45,0.188 v 9.842 c 1.13,0.15 2.04,0.225 2.74,0.225 1.45,0 2.45,-0.425 2.99,-1.277 0.54,-0.851 0.81,-2.304 0.81,-4.357 0,-3.456 -1.09,-5.184 -3.27,-5.184 z"
   style="fill:#ffffff;fill-rule:nonzero"
   id="path36" />
                        <path
   d="m 1048,398.949 c 0.03,1.152 0.34,1.985 0.92,2.498 0.59,0.514 1.44,0.77 2.54,0.77 2.33,0 4.41,-0.075 6.23,-0.225 l 1.06,-0.113 0.07,3.719 c -2.88,0.701 -5.48,1.052 -7.81,1.052 -2.83,0 -4.89,-0.751 -6.16,-2.254 -1.28,-1.503 -1.92,-3.944 -1.92,-7.325 0,-6.737 2.77,-10.105 8.3,-10.105 5.46,0 8.19,2.83 8.19,8.49 l -0.37,3.493 z m 6.46,-3.831 c 0,-1.503 -0.23,-2.549 -0.71,-3.137 -0.47,-0.589 -1.31,-0.883 -2.5,-0.883 -1.19,0 -2.03,0.307 -2.51,0.92 -0.49,0.614 -0.75,1.647 -0.77,3.1 z"
   style="fill:#ffffff;fill-rule:nonzero"
   id="path37" />
                        <path
   d="m 1068.06,406.199 h -5.03 v -18.782 h 5 v 1.052 c 1.7,-1.002 3.26,-1.503 4.69,-1.503 2.5,0 4.23,0.739 5.18,2.216 0.96,1.478 1.43,3.757 1.43,6.837 v 10.18 h -5.03 v -10.03 c 0,-1.602 -0.19,-2.786 -0.56,-3.55 -0.38,-0.763 -1.13,-1.145 -2.26,-1.145 -1.03,0 -2.01,0.175 -2.97,0.526 l -0.45,0.15 z"
   style="fill:#ffffff;fill-rule:nonzero"
   id="path38" />
                        <path
   d="m 1100.37,384.712 c -2.73,0 -4.1,0.902 -4.1,2.705 0,0.801 0.34,1.415 1.02,1.84 0.67,0.426 2.26,1.04 4.75,1.841 2.49,0.801 4.24,1.709 5.24,2.724 1,1.014 1.5,2.573 1.5,4.676 0,2.68 -0.81,4.708 -2.44,6.086 -1.63,1.377 -3.75,2.066 -6.38,2.066 -1.96,0 -4.35,-0.301 -7.18,-0.902 l -1.35,-0.263 0.52,-4.019 c 3.36,0.451 5.93,0.676 7.7,0.676 2.66,0 3.99,-1.102 3.99,-3.306 0,-0.801 -0.31,-1.427 -0.92,-1.878 -0.62,-0.451 -1.84,-0.939 -3.67,-1.465 -2.9,-0.826 -4.95,-1.809 -6.14,-2.949 -1.19,-1.139 -1.78,-2.723 -1.78,-4.752 0,-2.554 0.77,-4.457 2.33,-5.709 1.55,-1.253 3.68,-1.879 6.38,-1.879 1.86,0 4.21,0.251 7.06,0.752 l 1.36,0.263 -0.42,4.094 c -3.53,-0.401 -6.02,-0.601 -7.47,-0.601 z"
   style="fill:#ffffff;fill-rule:nonzero"
   id="path39" />
                        <path
   d="m 1113.52,389.539 c 1.32,-1.715 3.54,-2.573 6.64,-2.573 3.11,0 5.33,0.858 6.65,2.573 1.33,1.716 2,4.126 2,7.231 0,6.587 -2.89,9.88 -8.65,9.88 -5.75,0 -8.63,-3.293 -8.63,-9.88 0,-3.105 0.66,-5.515 1.99,-7.231 z m 3.88,11.476 c 0.52,0.902 1.44,1.353 2.76,1.353 1.33,0 2.25,-0.451 2.77,-1.353 0.51,-0.901 0.77,-2.316 0.77,-4.245 0,-1.928 -0.26,-3.33 -0.77,-4.207 -0.52,-0.876 -1.44,-1.315 -2.77,-1.315 -1.32,0 -2.24,0.439 -2.76,1.315 -0.51,0.877 -0.77,2.279 -0.77,4.207 0,1.929 0.26,3.344 0.77,4.245 z"
   style="fill:#ffffff;fill-rule:nonzero"
   id="path40" />
                        <path
   d="m 1143.57,387.417 h 5.03 v 18.782 h -4.99 v -1.052 c -1.81,1.002 -3.37,1.503 -4.7,1.503 -2.6,0 -4.36,-0.72 -5.26,-2.16 -0.9,-1.44 -1.35,-3.85 -1.35,-7.231 v -9.842 h 5.03 v 9.917 c 0,1.853 0.15,3.118 0.45,3.794 0.3,0.676 1.03,1.014 2.18,1.014 1.1,0 2.14,-0.175 3.12,-0.526 l 0.49,-0.15 z"
   style="fill:#ffffff;fill-rule:nonzero"
   id="path41" />
                        <path
   d="m 1153.26,406.199 v -18.782 h 5 v 1.991 c 2.1,-1.252 4.1,-2.066 6.01,-2.442 v 5.071 c -2.03,0.426 -3.77,0.864 -5.22,1.315 l -0.76,0.263 v 12.584 z"
   style="fill:#ffffff;fill-rule:nonzero"
   id="path42" />
                        <path
   d="m 1174.26,386.966 c 1.3,0 2.97,0.2 5,0.601 l 1.01,0.225 -0.15,3.982 c -1.98,-0.2 -3.45,-0.3 -4.4,-0.3 -1.72,0 -2.87,0.369 -3.43,1.108 -0.57,0.739 -0.85,2.135 -0.85,4.188 0,2.054 0.28,3.463 0.85,4.226 0.56,0.764 1.72,1.146 3.47,1.146 l 4.36,-0.3 0.15,4.019 c -2.68,0.526 -4.72,0.789 -6.12,0.789 -2.78,0 -4.78,-0.783 -6,-2.348 -1.21,-1.565 -1.82,-4.076 -1.82,-7.532 0,-3.456 0.63,-5.954 1.88,-7.494 1.25,-1.54 3.27,-2.31 6.05,-2.31 z"
   style="fill:#ffffff;fill-rule:nonzero"
   id="path43" />
                        <path
   d="m 1187.97,398.949 c 0.03,1.152 0.33,1.985 0.92,2.498 0.59,0.514 1.43,0.77 2.54,0.77 2.33,0 4.4,-0.075 6.23,-0.225 l 1.05,-0.113 0.08,3.719 c -2.88,0.701 -5.49,1.052 -7.81,1.052 -2.84,0 -4.89,-0.751 -6.17,-2.254 -1.27,-1.503 -1.91,-3.944 -1.91,-7.325 0,-6.737 2.77,-10.105 8.3,-10.105 5.46,0 8.19,2.83 8.19,8.49 l -0.38,3.493 z m 6.46,-3.831 c 0,-1.503 -0.24,-2.549 -0.71,-3.137 -0.48,-0.589 -1.31,-0.883 -2.5,-0.883 -1.19,0 -2.03,0.307 -2.52,0.92 -0.49,0.614 -0.74,1.647 -0.77,3.1 z"
   style="fill:#ffffff;fill-rule:nonzero"
   id="path44" />
                        <path
   d="m 1244.39,394.742 v 0.3 c 0,3.857 -0.6,6.681 -1.82,8.471 -1.21,1.791 -3.02,2.686 -5.43,2.686 -1.78,0 -3.23,-0.451 -4.35,-1.352 -0.26,-0.201 -0.47,-0.451 -0.64,-0.751 -2.01,1.402 -3.86,2.103 -5.56,2.103 -2.36,0 -4.12,-0.732 -5.28,-2.197 -1.17,-1.465 -1.75,-3.832 -1.75,-7.1 0,-3.268 0.55,-5.666 1.64,-7.194 1.09,-1.527 2.93,-2.291 5.54,-2.291 0.87,0 1.83,0.225 2.85,0.676 l 0.56,0.263 v -0.488 h 5.04 v 6.724 c 0,3.456 0.07,5.434 0.2,5.935 0.14,0.501 0.29,0.851 0.46,1.052 0.16,0.2 0.33,0.319 0.5,0.357 0.18,0.037 0.42,0.056 0.72,0.056 0.8,0 1.38,-0.488 1.74,-1.465 0.37,-0.977 0.55,-2.805 0.55,-5.485 v -0.338 c 0,-4.007 -0.92,-6.918 -2.76,-8.733 -1.84,-1.816 -4.77,-2.724 -8.79,-2.724 -4.02,0 -7.1,1.152 -9.22,3.456 -2.13,2.304 -3.2,5.654 -3.2,10.049 0,4.395 0.95,7.638 2.86,9.729 1.9,2.091 5.09,3.137 9.58,3.137 l 5.37,-0.339 0.19,4.396 c -2.26,0.25 -4.11,0.375 -5.56,0.375 -2.88,0 -5.36,-0.288 -7.44,-0.864 -2.08,-0.576 -3.9,-1.527 -5.45,-2.855 -3.05,-2.679 -4.58,-7.325 -4.58,-13.936 0,-5.785 1.56,-10.162 4.69,-13.129 3.13,-2.968 7.42,-4.452 12.85,-4.452 5.44,0 9.54,1.359 12.32,4.076 2.78,2.717 4.17,6.668 4.17,11.852 z m -17.39,7.025 c 0.95,0 2.08,-0.314 3.38,-0.94 -0.15,-0.901 -0.23,-2.228 -0.23,-3.981 v -4.621 c -1.05,-0.25 -1.81,-0.376 -2.29,-0.376 -1.3,0 -2.16,0.364 -2.57,1.09 -0.41,0.726 -0.62,2.003 -0.62,3.831 0,3.331 0.78,4.997 2.33,4.997 z"
   style="fill:#ffffff;fill-rule:nonzero"
   id="path45" />
                        <path
   d="m 1254.23,385.238 v -4.583 h 18.79 v 4.583 h -6.76 v 20.961 h -5.19 v -20.961 z"
   style="fill:#ffffff;fill-rule:nonzero"
   id="path46" />
                        <path
   d="m 1281.24,397.672 c 0,2.98 1.52,4.47 4.55,4.47 3.03,0 4.54,-1.49 4.54,-4.47 v -17.017 h 5.19 v 16.904 c 0,3.131 -0.81,5.428 -2.42,6.893 -1.62,1.465 -4.06,2.198 -7.31,2.198 -3.26,0 -5.69,-0.733 -7.31,-2.198 -1.61,-1.465 -2.42,-3.762 -2.42,-6.893 v -16.904 h 5.18 z"
   style="fill:#ffffff;fill-rule:nonzero"
   id="path47" />
                        <path
   d="m 1300.85,406.199 v -25.544 h 8.83 l 4.51,18.632 4.5,-18.632 h 8.83 v 25.544 h -5.18 V 386.44 h -0.56 l -5,18.632 h -5.18 l -5,-18.632 h -0.56 v 19.759 z"
   style="fill:#ffffff;fill-rule:nonzero"
   id="path48" />
                    </g>
                </g>
            </g>
            <path
   d="m 1308.74,345.78 c -3.01,-3.81 -11.99,-13.957 -11.35,-16.245 0.16,-0.586 0.96,-1.408 1.39,-1.624 2.3,-1.162 9.44,-2.048 13.93,2.328 5.45,5.299 13.33,16.403 13.33,16.403 8.93,13.618 7.26,27.471 3.17,36.588 -0.92,2.05 -3.39,2.574 -5.37,2.574 -1.68,0 -3.37,-0.624 -4.73,-1.896 -2.97,-2.772 -2.51,-7.022 -0.64,-10.717 2.09,-4.131 0.76,-9.777 0.27,-11.628 -1.36,-5.141 -6.6,-11.482 -10,-15.783 z"
   style="fill:#3070b3"
   id="path50" />
        </g>
    </g>
</svg>
