<?xml version="1.0" encoding="UTF-8" standalone="no"?>
<svg
   width="487.979"
   height="162.74699"
   viewBox="0 0 487.979 162.74699"
   version="1.1"
   xml:space="preserve"
   style="clip-rule:evenodd;fill-rule:evenodd;stroke-linejoin:round;stroke-miterlimit:2"
   id="svg51"
   sodipodi:docname="logo.svg"
   inkscape:export-batch-path="/home/frank/dev/tum-dev/tum-dev.github.io/public"
   inkscape:export-batch-name="logo-light"
   xmlns:inkscape="http://www.inkscape.org/namespaces/inkscape"
   xmlns:sodipodi="http://sodipodi.sourceforge.net/DTD/sodipodi-0.dtd"
   xmlns="http://www.w3.org/2000/svg"
   xmlns:svg="http://www.w3.org/2000/svg"
   xmlns:serif="http://www.serif.com/"><defs
   id="defs51" /><sodipodi:namedview
   id="namedview51"
   pagecolor="#505050"
   bordercolor="#ffffff"
   borderopacity="1"
   inkscape:showpageshadow="0"
   inkscape:pageopacity="0"
   inkscape:pagecheckerboard="1"
   inkscape:deskcolor="#d1d1d1" />
    
    <g
   id="dark1"
   serif:id="dark"
   inkscape:export-filename="logo-dark.svg"
   inkscape:export-xdpi="96"
   inkscape:export-ydpi="96"
   transform="translate(-116.621,-270.6)">
        <g
   id="logo">
            <g
   id="g6">
                <path
   d="m 502.448,305.11 c 0,7.853 -3.436,14.855 -8.82,19.382 -3.98,3.372 -9.034,5.392 -14.531,5.392 -5.498,0 -10.552,-2.02 -14.532,-5.392 -5.383,-4.527 -8.819,-11.529 -8.819,-19.382 0,-13.685 10.451,-24.774 23.351,-24.774 12.899,0 23.351,11.089 23.351,24.774"
   style="fill:#3070b3;fill-rule:nonzero"
   id="path1" />
                <path
   d="m 386.481,305.11 c 0,7.853 -3.437,14.855 -8.82,19.382 -3.98,3.372 -9.034,5.392 -14.531,5.392 -5.498,0 -10.552,-2.02 -14.532,-5.392 -5.383,-4.527 -8.819,-11.529 -8.819,-19.382 0,-13.685 10.451,-24.774 23.351,-24.774 12.899,0 23.351,11.089 23.351,24.774"
   style="fill:#3070b3;fill-rule:nonzero"
   id="path2" />
                <path
   d="m 270.513,305.11 c 0,7.853 -3.436,14.855 -8.819,19.382 -3.98,3.372 -9.034,5.392 -14.532,5.392 -5.497,0 -10.551,-2.02 -14.531,-5.392 -5.383,-4.527 -8.819,-11.529 -8.819,-19.382 0,-13.685 10.451,-24.774 23.35,-24.774 12.9,0 23.351,11.089 23.351,24.774"
   style="fill:#3070b3;fill-rule:nonzero"
   id="path3" />
                <path
   d="M 335.463,339.321 300.65,308.574 c -2.987,-2.747 -3.312,-7.543 -0.723,-10.713 1.416,-1.735 3.408,-2.624 5.413,-2.624 1.661,0 3.33,0.611 4.684,1.855 0,0 32.502,29.942 33.549,30.833 0.019,0.021 12.068,9.066 19.557,9.066 7.516,0 18.091,-7.687 19.659,-9.114 l 33.648,-31.062 c 1.322,-1.124 2.902,-1.668 4.472,-1.668 2.098,0 4.177,0.974 5.592,2.848 2.471,3.273 1.973,8.053 -1.113,10.674 l -34.359,31.162 c 0.215,0.481 3.712,11.951 3.712,17.796 v 17.341 h -63.223 v -17.341 c 0,-5.845 1.117,-11.381 3.092,-16.317 0.268,-0.675 0.553,-1.338 0.853,-1.989 z"
   style="fill:#3070b3"
   id="path4" />
                <path
   d="m 219.496,339.321 -34.814,-30.747 c -2.986,-2.747 -3.311,-7.543 -0.723,-10.713 1.416,-1.735 3.409,-2.624 5.414,-2.624 1.66,0 3.33,0.611 4.684,1.855 0,0 32.501,29.942 33.549,30.833 0.019,0.021 12.068,9.066 19.556,9.066 7.517,0 18.092,-7.687 19.66,-9.114 l 33.648,-31.062 c 1.322,-1.124 2.902,-1.668 4.471,-1.668 2.099,0 4.178,0.974 5.593,2.848 2.471,3.273 1.972,8.053 -1.113,10.674 l -34.359,31.162 c 0.215,0.481 3.712,11.951 3.712,17.796 v 17.341 h -63.223 v -17.341 c 0,-5.845 1.116,-11.381 3.092,-16.317 0.268,-0.675 0.553,-1.338 0.853,-1.989 z"
   style="fill:#3070b3"
   id="path5" />
                <path
   d="m 451.431,339.321 -34.814,-30.747 c -2.987,-2.747 -3.312,-7.543 -0.723,-10.713 1.416,-1.735 3.409,-2.624 5.413,-2.624 1.661,0 3.33,0.611 4.685,1.855 0,0 32.501,29.942 33.548,30.833 0.019,0.021 12.069,9.066 19.557,9.066 7.516,0 17.765,-7.412 19.333,-8.839 l 8.566,11.679 c 0.215,0.481 3.713,11.951 3.713,17.796 v 17.341 h -63.224 v -17.341 c 0,-5.845 1.117,-11.381 3.092,-16.317 0.269,-0.675 0.553,-1.338 0.854,-1.989 z"
   style="fill:#3070b3"
   id="path6" />
            </g>
            <g
   id="g25">
                <path
   d="m 590.718,367.537 v 39.913 c 0,8.443 -2.198,14.837 -6.594,19.174 -4.397,4.341 -10.933,6.723 -19.611,6.723 h -7.636 v -13.924 h 4.341 c 4.281,0 7.491,-1.157 9.629,-3.47 2.143,-2.316 3.211,-5.667 3.211,-10.065 v -38.004 c 0,-4.049 0.521,-7.203 1.562,-9.459 1.041,-2.255 2.575,-3.961 4.598,-5.118 0.989,-0.564 2.127,-1.043 3.404,-1.442 -0.187,-0.065 -3.119,-1.266 -3.404,-1.422 -2.023,-1.098 -3.557,-2.777 -4.598,-5.032 -1.041,-2.256 -1.562,-5.407 -1.562,-9.458 v -38.005 c 0,-4.393 -1.068,-7.749 -3.211,-10.065 -2.138,-2.311 -5.348,-3.47 -9.629,-3.47 h -4.341 V 270.6 h 7.636 c 8.678,0 15.214,2.246 19.611,6.524 4.396,4.282 6.594,10.703 6.594,19.262 V 336.3 c 0,3.009 0.694,5.207 2.082,6.594 1.389,1.388 3.297,2.083 5.727,2.083 h 6.073 v 13.882 h -6.073 c -2.43,0 -4.338,0.695 -5.727,2.084 -1.388,1.388 -2.082,3.587 -2.082,6.594"
   style="fill:#c2d7ef;fill-rule:nonzero"
   id="path7" />
                <path
   d="m 130.504,367.537 v 39.913 c 0,8.443 2.197,14.837 6.594,19.174 4.397,4.341 10.933,6.723 19.611,6.723 h 7.636 v -13.924 h -4.341 c -4.281,0 -7.491,-1.157 -9.629,-3.47 -2.143,-2.316 -3.212,-5.667 -3.212,-10.065 v -38.004 c 0,-4.049 -0.52,-7.203 -1.562,-9.459 -1.04,-2.255 -2.574,-3.961 -4.597,-5.118 -0.989,-0.564 -2.127,-1.043 -3.405,-1.442 0.187,-0.065 3.12,-1.266 3.405,-1.422 2.023,-1.098 3.557,-2.777 4.597,-5.032 1.042,-2.256 1.562,-5.407 1.562,-9.458 v -38.005 c 0,-4.393 1.069,-7.749 3.212,-10.065 2.138,-2.311 5.348,-3.47 9.629,-3.47 h 4.341 V 270.6 h -7.636 c -8.678,0 -15.214,2.246 -19.611,6.524 -4.397,4.282 -6.594,10.703 -6.594,19.262 V 336.3 c 0,3.009 -0.695,5.207 -2.082,6.594 -1.389,1.388 -3.297,2.083 -5.727,2.083 h -6.074 v 13.882 h 6.074 c 2.43,0 4.338,0.695 5.727,2.084 1.387,1.388 2.082,3.587 2.082,6.594"
   style="fill:#c2d7ef;fill-rule:nonzero"
   id="path8" />
                <path
   d="m 531.157,370.885 c 4.304,0 7.72,2.827 7.72,7.541 v 35.453 c 0,4.714 -3.49,6.776 -7.794,6.776 H 192.14 c -4.306,0 -7.795,-2.062 -7.795,-6.776 v -35.453 c 0,-4.714 3.563,-7.541 7.869,-7.541 z"
   style="fill:#c2d7ef"
   id="path9" />
                <g
   id="g24">
                    <g
   id="g23">
                        <path
   d="m 204.71,400.17 c 0.739,1.315 2.123,1.972 4.151,1.972 2.029,0 3.412,-0.657 4.151,-1.972 0.739,-1.315 1.108,-3.519 1.108,-6.611 0,-3.093 -0.376,-5.341 -1.127,-6.743 -0.751,-1.403 -2.129,-2.104 -4.132,-2.104 -2.003,0 -3.381,0.701 -4.132,2.104 -0.751,1.402 -1.127,3.65 -1.127,6.743 0,3.092 0.369,5.296 1.108,6.611 z m 12.359,3.306 c -1.59,2.116 -4.326,3.174 -8.208,3.174 -3.882,0 -6.618,-1.058 -8.208,-3.174 -1.59,-2.116 -2.385,-5.428 -2.385,-9.936 0,-4.508 0.795,-7.857 2.385,-10.049 1.59,-2.191 4.326,-3.287 8.208,-3.287 3.882,0 6.618,1.096 8.208,3.287 1.59,2.192 2.385,5.541 2.385,10.049 0,4.508 -0.795,7.82 -2.385,9.936 z"
   style="fill-rule:nonzero"
   id="path10" />
                        <path
   d="m 223.436,414.088 v -26.671 h 4.996 v 1.014 c 1.628,-0.977 3.056,-1.465 4.283,-1.465 2.529,0 4.395,0.758 5.597,2.273 1.202,1.515 1.803,4.088 1.803,7.719 0,3.631 -0.664,6.155 -1.991,7.57 -1.327,1.414 -3.506,2.122 -6.536,2.122 -0.827,0 -1.716,-0.075 -2.667,-0.225 l -0.451,-0.076 v 7.739 z m 8.302,-22.614 c -0.927,0 -1.866,0.188 -2.817,0.563 l -0.451,0.188 v 9.842 c 1.127,0.15 2.041,0.225 2.742,0.225 1.453,0 2.448,-0.425 2.986,-1.277 0.539,-0.851 0.808,-2.304 0.808,-4.357 0,-3.456 -1.089,-5.184 -3.268,-5.184 z"
   style="fill-rule:nonzero"
   id="path11" />
                        <path
   d="m 248.004,398.949 c 0.025,1.152 0.331,1.985 0.92,2.498 0.588,0.514 1.434,0.77 2.535,0.77 2.329,0 4.408,-0.075 6.236,-0.225 l 1.052,-0.113 0.075,3.719 c -2.88,0.701 -5.484,1.052 -7.813,1.052 -2.83,0 -4.884,-0.751 -6.161,-2.254 -1.277,-1.503 -1.916,-3.944 -1.916,-7.325 0,-6.737 2.768,-10.105 8.302,-10.105 5.459,0 8.189,2.83 8.189,8.49 l -0.375,3.493 z m 6.461,-3.831 c 0,-1.503 -0.238,-2.549 -0.714,-3.137 -0.476,-0.589 -1.309,-0.883 -2.498,-0.883 -1.19,0 -2.029,0.307 -2.517,0.92 -0.488,0.614 -0.745,1.647 -0.77,3.1 z"
   style="fill-rule:nonzero"
   id="path12" />
                        <path
   d="m 268.063,406.199 h -5.034 v -18.782 h 4.997 v 1.052 c 1.702,-1.002 3.268,-1.503 4.695,-1.503 2.504,0 4.232,0.739 5.184,2.216 0.952,1.478 1.428,3.757 1.428,6.837 v 10.18 h -5.034 v -10.03 c 0,-1.602 -0.188,-2.786 -0.564,-3.55 -0.375,-0.763 -1.127,-1.145 -2.254,-1.145 -1.026,0 -2.015,0.175 -2.967,0.526 l -0.451,0.15 z"
   style="fill-rule:nonzero"
   id="path13" />
                        <path
   d="m 300.369,384.712 c -2.73,0 -4.095,0.902 -4.095,2.705 0,0.801 0.338,1.415 1.014,1.84 0.677,0.426 2.261,1.04 4.752,1.841 2.492,0.801 4.239,1.709 5.241,2.724 1.001,1.014 1.502,2.573 1.502,4.676 0,2.68 -0.814,4.708 -2.441,6.086 -1.628,1.377 -3.757,2.066 -6.386,2.066 -1.954,0 -4.345,-0.301 -7.175,-0.902 l -1.353,-0.263 0.526,-4.019 c 3.356,0.451 5.923,0.676 7.701,0.676 2.655,0 3.982,-1.102 3.982,-3.306 0,-0.801 -0.307,-1.427 -0.92,-1.878 -0.614,-0.451 -1.835,-0.939 -3.663,-1.465 -2.905,-0.826 -4.952,-1.809 -6.142,-2.949 -1.189,-1.139 -1.784,-2.723 -1.784,-4.752 0,-2.554 0.776,-4.457 2.329,-5.709 1.553,-1.253 3.681,-1.879 6.386,-1.879 1.853,0 4.207,0.251 7.062,0.752 l 1.352,0.263 -0.413,4.094 c -3.531,-0.401 -6.023,-0.601 -7.475,-0.601 z"
   style="fill-rule:nonzero"
   id="path14" />
                        <path
   d="m 313.516,389.539 c 1.328,-1.715 3.544,-2.573 6.649,-2.573 3.106,0 5.322,0.858 6.649,2.573 1.328,1.716 1.991,4.126 1.991,7.231 0,6.587 -2.88,9.88 -8.64,9.88 -5.759,0 -8.639,-3.293 -8.639,-9.88 0,-3.105 0.663,-5.515 1.99,-7.231 z m 3.888,11.476 c 0.514,0.902 1.434,1.353 2.761,1.353 1.328,0 2.248,-0.451 2.761,-1.353 0.514,-0.901 0.771,-2.316 0.771,-4.245 0,-1.928 -0.257,-3.33 -0.771,-4.207 -0.513,-0.876 -1.433,-1.315 -2.761,-1.315 -1.327,0 -2.247,0.439 -2.761,1.315 -0.513,0.877 -0.77,2.279 -0.77,4.207 0,1.929 0.257,3.344 0.77,4.245 z"
   style="fill-rule:nonzero"
   id="path15" />
                        <path
   d="m 343.568,387.417 h 5.034 v 18.782 h -4.996 v -1.052 c -1.803,1.002 -3.368,1.503 -4.696,1.503 -2.604,0 -4.357,-0.72 -5.259,-2.16 -0.901,-1.44 -1.352,-3.85 -1.352,-7.231 v -9.842 h 5.034 v 9.917 c 0,1.853 0.15,3.118 0.45,3.794 0.301,0.676 1.027,1.014 2.179,1.014 1.102,0 2.141,-0.175 3.118,-0.526 l 0.488,-0.15 z"
   style="fill-rule:nonzero"
   id="path16" />
                        <path
   d="m 353.26,406.199 v -18.782 h 4.996 v 1.991 c 2.104,-1.252 4.107,-2.066 6.01,-2.442 v 5.071 c -2.028,0.426 -3.769,0.864 -5.221,1.315 l -0.751,0.263 v 12.584 z"
   style="fill-rule:nonzero"
   id="path17" />
                        <path
   d="m 374.259,386.966 c 1.302,0 2.967,0.2 4.996,0.601 l 1.014,0.225 -0.15,3.982 c -1.979,-0.2 -3.444,-0.3 -4.395,-0.3 -1.728,0 -2.874,0.369 -3.437,1.108 -0.564,0.739 -0.846,2.135 -0.846,4.188 0,2.054 0.282,3.463 0.846,4.226 0.563,0.764 1.721,1.146 3.474,1.146 l 4.358,-0.3 0.15,4.019 c -2.68,0.526 -4.721,0.789 -6.123,0.789 -2.78,0 -4.777,-0.783 -5.992,-2.348 -1.214,-1.565 -1.821,-4.076 -1.821,-7.532 0,-3.456 0.626,-5.954 1.878,-7.494 1.252,-1.54 3.268,-2.31 6.048,-2.31 z"
   style="fill-rule:nonzero"
   id="path18" />
                        <path
   d="m 387.97,398.949 c 0.025,1.152 0.332,1.985 0.92,2.498 0.589,0.514 1.434,0.77 2.536,0.77 2.329,0 4.407,-0.075 6.236,-0.225 l 1.051,-0.113 0.075,3.719 c -2.879,0.701 -5.484,1.052 -7.813,1.052 -2.83,0 -4.883,-0.751 -6.161,-2.254 -1.277,-1.503 -1.915,-3.944 -1.915,-7.325 0,-6.737 2.767,-10.105 8.301,-10.105 5.46,0 8.19,2.83 8.19,8.49 l -0.376,3.493 z m 6.461,-3.831 c 0,-1.503 -0.238,-2.549 -0.714,-3.137 -0.476,-0.589 -1.308,-0.883 -2.498,-0.883 -1.189,0 -2.028,0.307 -2.517,0.92 -0.488,0.614 -0.745,1.647 -0.77,3.1 z"
   style="fill-rule:nonzero"
   id="path19" />
                        <path
   d="m 444.392,394.742 v 0.3 c 0,3.857 -0.607,6.681 -1.822,8.471 -1.214,1.791 -3.024,2.686 -5.428,2.686 -1.778,0 -3.23,-0.451 -4.357,-1.352 -0.251,-0.201 -0.464,-0.451 -0.639,-0.751 -2.003,1.402 -3.857,2.103 -5.56,2.103 -2.354,0 -4.113,-0.732 -5.277,-2.197 -1.165,-1.465 -1.747,-3.832 -1.747,-7.1 0,-3.268 0.544,-5.666 1.634,-7.194 1.089,-1.527 2.936,-2.291 5.541,-2.291 0.876,0 1.828,0.225 2.855,0.676 l 0.563,0.263 v -0.488 h 5.034 v 6.724 c 0,3.456 0.069,5.434 0.206,5.935 0.138,0.501 0.288,0.851 0.451,1.052 0.163,0.2 0.332,0.319 0.507,0.357 0.176,0.037 0.413,0.056 0.714,0.056 0.801,0 1.384,-0.488 1.747,-1.465 0.363,-0.977 0.544,-2.805 0.544,-5.485 v -0.338 c 0,-4.007 -0.92,-6.918 -2.761,-8.733 -1.84,-1.816 -4.77,-2.724 -8.79,-2.724 -4.019,0 -7.093,1.152 -9.222,3.456 -2.129,2.304 -3.193,5.654 -3.193,10.049 0,4.395 0.952,7.638 2.855,9.729 1.903,2.091 5.096,3.137 9.579,3.137 l 5.372,-0.339 0.188,4.396 c -2.254,0.25 -4.107,0.375 -5.56,0.375 -2.88,0 -5.359,-0.288 -7.438,-0.864 -2.078,-0.576 -3.894,-1.527 -5.447,-2.855 -3.055,-2.679 -4.583,-7.325 -4.583,-13.936 0,-5.785 1.566,-10.162 4.696,-13.129 3.13,-2.968 7.413,-4.452 12.847,-4.452 5.435,0 9.542,1.359 12.321,4.076 2.78,2.717 4.17,6.668 4.17,11.852 z M 427,401.767 c 0.951,0 2.078,-0.314 3.38,-0.94 -0.15,-0.901 -0.225,-2.228 -0.225,-3.981 v -4.621 c -1.052,-0.25 -1.816,-0.376 -2.291,-0.376 -1.303,0 -2.16,0.364 -2.574,1.09 -0.413,0.726 -0.619,2.003 -0.619,3.831 0,3.331 0.776,4.997 2.329,4.997 z"
   style="fill-rule:nonzero"
   id="path20" />
                        <path
   d="m 454.234,385.238 v -4.583 h 18.782 v 4.583 h -6.761 v 20.961 h -5.184 v -20.961 z"
   style="fill-rule:nonzero"
   id="path21" />
                        <path
   d="m 481.243,397.672 c 0,2.98 1.515,4.47 4.545,4.47 3.031,0 4.546,-1.49 4.546,-4.47 v -17.017 h 5.184 v 16.904 c 0,3.131 -0.808,5.428 -2.423,6.893 -1.615,1.465 -4.051,2.198 -7.307,2.198 -3.255,0 -5.691,-0.733 -7.306,-2.198 -1.615,-1.465 -2.423,-3.762 -2.423,-6.893 v -16.904 h 5.184 z"
   style="fill-rule:nonzero"
   id="path22" />
                        <path
   d="m 500.852,406.199 v -25.544 h 8.828 l 4.507,18.632 4.508,-18.632 h 8.828 v 25.544 h -5.184 V 386.44 h -0.563 l -4.997,18.632 h -5.184 l -4.996,-18.632 h -0.563 v 19.759 z"
   style="fill-rule:nonzero"
   id="path23" />
                    </g>
                </g>
            </g>
            <path
   d="m 508.74,345.78 c -3.012,-3.81 -11.988,-13.957 -11.353,-16.245 0.163,-0.586 0.96,-1.408 1.389,-1.624 2.302,-1.162 9.443,-2.048 13.937,2.328 5.445,5.299 13.325,16.403 13.325,16.403 8.929,13.618 7.262,27.471 3.173,36.588 -0.919,2.05 -3.39,2.574 -5.374,2.574 -1.68,0 -3.367,-0.624 -4.728,-1.896 -2.967,-2.772 -2.511,-7.022 -0.641,-10.717 2.09,-4.131 0.757,-9.777 0.268,-11.628 -1.357,-5.141 -6.594,-11.482 -9.996,-15.783 z"
   style="fill:#3070b3"
   id="path25" />
        </g>
    </g>
    
    
</svg>
