<svg xmlns="http://www.w3.org/2000/svg" xml:space="preserve" width="162.7" height="162.7" fill-rule="evenodd" stroke-linejoin="round" stroke-miterlimit="2" clip-rule="evenodd" viewBox="0 0 163 163" aria-hidden="true">
<style>
  path {
    fill: black;
  }
  @media (prefers-color-scheme: dark) {
    path { fill: white; }
  }
  </style>
  <path fill-rule="nonzero" d="M145 97v40c0 8-3 15-8 19-6 4-14 7-26 7h-9v-14h5c6 0 10-1 13-4 2-2 4-5 4-10V97c0-4 0-7 2-9 1-2 3-4 6-5l4-2-4-1c-3-1-5-3-6-5-2-2-2-6-2-10V27c0-4-2-7-4-10-3-2-7-3-13-3h-5V0h9c12 0 20 2 26 7 5 4 8 10 8 19v40c0 3 1 5 3 6 1 2 4 2 7 2h8v14h-8l-7 2c-2 2-3 4-3 7M18 97v40c0 8 3 15 8 19 6 4 14 7 25 7h10v-14h-6c-5 0-9-1-12-4-3-2-4-5-4-10V97l-2-9c-1-2-3-4-6-5l-4-2 4-1c3-1 5-3 6-5l2-10V27c0-4 1-7 4-10 3-2 7-3 12-3h6V0H51C40 0 32 2 26 7c-5 4-8 10-8 19v40c0 3-1 5-3 6-2 2-4 2-7 2H0v14h8l7 2c2 2 3 4 3 7"/>
</svg>
